REM DIRINDEX 1\2\6,1\2\7,1\2\8,1\2\9,1\3\10,1\3\11,1\4\12,1\4\13,1\4\14,1\5\15,1\5\16,1\5\17
REM DIRNAME folder01,folder02,folder03,folder04,folder05,folder06,folder07,folder08,folder09,folder10,folder11,folder12,folder13,folder14,folder15,folder16,folder17
TITLE ""
FILE "1400_2_sec11_1050_1065.mp3" MP3
  TRACK 01 AUDIO
    TITLE "0:"
    INDEX 01 00:00:00
  TRACK 02 AUDIO
    TITLE "13:cjc029_3709"
    INDEX 01 00:00:17
  TRACK 03 AUDIO
    TITLE "0:"
    INDEX 01 00:01:28
  TRACK 04 AUDIO
    TITLE "14:cjc029_3710"
    INDEX 01 00:01:34
  TRACK 05 AUDIO
    TITLE "0:"
    INDEX 01 00:03:57
  TRACK 06 AUDIO
    TITLE "13:cjc029_3711"
    INDEX 01 00:04:40
  TRACK 07 AUDIO
    TITLE "0:"
    INDEX 01 00:05:61
  TRACK 08 AUDIO
    TITLE "14:cjc029_3712"
    INDEX 01 00:05:63
  TRACK 09 AUDIO
    TITLE "0:"
    INDEX 01 00:08:21
  TRACK 10 AUDIO
    TITLE "13:cjc029_3713"
    INDEX 01 00:09:04
  TRACK 11 AUDIO
    TITLE "0:"
    INDEX 01 00:10:21
  TRACK 12 AUDIO
    TITLE "14:cjc029_3714"
    INDEX 01 00:10:25
  TRACK 13 AUDIO
    TITLE "0:"
    INDEX 01 00:11:44
  TRACK 14 AUDIO
    TITLE "13:cjc029_3715"
    INDEX 01 00:12:26
  TRACK 15 AUDIO
    TITLE "0:"
    INDEX 01 00:13:39
  TRACK 16 AUDIO
    TITLE "14:cjc029_3716"
    INDEX 01 00:13:47
  TRACK 17 AUDIO
    TITLE "0:"
    INDEX 01 00:14:54
  TRACK 18 AUDIO
    TITLE "13:cjc029_3717"
    INDEX 01 00:15:34
  TRACK 19 AUDIO
    TITLE "0:"
    INDEX 01 00:16:36
  TRACK 20 AUDIO
    TITLE "14:cjc029_3718"
    INDEX 01 00:16:44
  TRACK 21 AUDIO
    TITLE "0:"
    INDEX 01 00:19:15
  TRACK 22 AUDIO
    TITLE "13:cjc029_3719"
    INDEX 01 00:19:71
  TRACK 23 AUDIO
    TITLE "0:"
    INDEX 01 00:21:15
  TRACK 24 AUDIO
    TITLE "14:cjc029_3720"
    INDEX 01 00:21:21
  TRACK 25 AUDIO
    TITLE "0:"
    INDEX 01 00:27:51
  TRACK 26 AUDIO
    TITLE "13:cjc029_3721"
    INDEX 01 00:28:33
  TRACK 27 AUDIO
    TITLE "0:"
    INDEX 01 00:29:58
  TRACK 28 AUDIO
    TITLE "14:cjc029_3722"
    INDEX 01 00:29:62
  TRACK 29 AUDIO
    TITLE "0:"
    INDEX 01 00:32:45
  TRACK 30 AUDIO
    TITLE "13:cjc029_3723"
    INDEX 01 00:33:30
  TRACK 31 AUDIO
    TITLE "0:"
    INDEX 01 00:34:55
  TRACK 32 AUDIO
    TITLE "14:cjc029_3724"
    INDEX 01 00:34:61
  TRACK 33 AUDIO
    TITLE "0:"
    INDEX 01 00:37:18
  TRACK 34 AUDIO
    TITLE "13:cjc029_3725"
    INDEX 01 00:38:00
  TRACK 35 AUDIO
    TITLE "0:"
    INDEX 01 00:39:13
  TRACK 36 AUDIO
    TITLE "14:cjc029_3726"
    INDEX 01 00:39:19
  TRACK 37 AUDIO
    TITLE "0:"
    INDEX 01 00:40:40
  TRACK 38 AUDIO
    TITLE "13:cjc029_3727"
    INDEX 01 00:41:22
  TRACK 39 AUDIO
    TITLE "0:"
    INDEX 01 00:42:37
  TRACK 40 AUDIO
    TITLE "14:cjc029_3728"
    INDEX 01 00:42:43
  TRACK 41 AUDIO
    TITLE "0:"
    INDEX 01 00:43:54
  TRACK 42 AUDIO
    TITLE "13:cjc029_3729"
    INDEX 01 00:44:38
  TRACK 43 AUDIO
    TITLE "0:"
    INDEX 01 00:45:59
  TRACK 44 AUDIO
    TITLE "14:cjc029_3730"
    INDEX 01 00:45:63
  TRACK 45 AUDIO
    TITLE "0:"
    INDEX 01 00:49:33
  TRACK 46 AUDIO
    TITLE "13:cjc029_3731"
    INDEX 01 00:50:15
  TRACK 47 AUDIO
    TITLE "0:"
    INDEX 01 00:51:30
  TRACK 48 AUDIO
    TITLE "14:cjc029_3732"
    INDEX 01 00:51:36
  TRACK 49 AUDIO
    TITLE "0:"
    INDEX 01 00:52:57
  TRACK 50 AUDIO
    TITLE "13:cjc029_3733"
    INDEX 01 00:53:35
  TRACK 51 AUDIO
    TITLE "0:"
    INDEX 01 00:54:58
  TRACK 52 AUDIO
    TITLE "14:cjc029_3734"
    INDEX 01 00:54:62
  TRACK 53 AUDIO
    TITLE "0:"
    INDEX 01 00:57:19
  TRACK 54 AUDIO
    TITLE "13:cjc029_3735"
    INDEX 01 00:58:01
  TRACK 55 AUDIO
    TITLE "0:"
    INDEX 01 00:59:24
  TRACK 56 AUDIO
    TITLE "14:cjc029_3736"
    INDEX 01 00:59:32
  TRACK 57 AUDIO
    TITLE "0:"
    INDEX 01 01:00:39
  TRACK 58 AUDIO
    TITLE "13:cjc029_3737"
    INDEX 01 01:01:23
  TRACK 59 AUDIO
    TITLE "0:"
    INDEX 01 01:02:57
  TRACK 60 AUDIO
    TITLE "14:cjc029_3738"
    INDEX 01 01:02:59
  TRACK 61 AUDIO
    TITLE "0:"
    INDEX 01 01:04:66
  TRACK 62 AUDIO
    TITLE "13:cjc029_3739"
    INDEX 01 01:05:48
  TRACK 63 AUDIO
    TITLE "0:"
    INDEX 01 01:06:67
  TRACK 64 AUDIO
    TITLE "14:cjc029_3740"
    INDEX 01 01:06:71
  TRACK 65 AUDIO
    TITLE "0:"
    INDEX 01 01:09:18
